# xmcd
#
# Track frame offsets:
#	150
#	21185
#	42813
#	54048
#	69174
#	86670
#	101597
#	120870
#	139914
#	163183
#	177859
#	193528
#	205477
#	219752
#	239853
#	252903
#	267830
#	282481
#	300609
#	313958
#
# Disc length: 4414 seconds
#
# Revision: 1
# Processed by: cddbd v1.5PL3 Copyright (c) Steve Scherf et al.
# Submitted via: CDex 1.50Beta5
#
DISCID=1e113c14
DTITLE=ロイヤル・フィルハーモニー・ポップス管弦楽団 - 華麗なるミュージカル・ベスト トゥナイト〜踊り明かそう
DYEAR=1900
DGENRE=Soundtrack -> Musicals/Broadway
TTITLE0=魅惑の宵 (南太平洋)
TTITLE1=トゥナイト (ウエスト・サイド物語)
TTITLE2=踊り明かそう (マイ・フェア・レディ)
TTITLE3=ハロー・ヤング・ラバーズ (王様と私)
TTITLE4=エーデルワイス (サウンド・オブ・ミュージック)
TTITLE5=ドレミの歌 (サウンド・オブ・ミュージック)
TTITLE6=サンライズ・サンセット (屋根の上のバイオリン弾き)
TTITLE7=見果てぬ夢 (ラ・マンチャの男)
TTITLE8=虹の彼方に (オズの魔法使い)
TTITLE9=チム・チム・チェリー (メリー・ポピンズ)
TTITLE10=ワン (コーラス・ライン)
TTITLE11=ショーほど素敵な商売はない (アニーよ銃をとれ)
TTITLE12=雨に唄えば (雨に唄えば)
TTITLE13=ピープル (ファニー・ガール)
TTITLE14=ハロー・ドーリー！ (ハロー・ドーリー！)
TTITLE15=キャバレー (キャバレー)
TTITLE16=ニューヨーク・ニューヨーク (ニューヨーク・ニューヨーク)
TTITLE17=スーパースター (ジーザス・クライスト・スーパースター)
TTITLE18=フェーム (フェーム)
TTITLE19=スター誕生〜愛のテーマ (スター誕生)
EXTD=
EXTT0=
EXTT1=
EXTT2=
EXTT3=
EXTT4=
EXTT5=
EXTT6=
EXTT7=
EXTT8=
EXTT9=
EXTT10=
EXTT11=
EXTT12=
EXTT13=
EXTT14=
EXTT15=
EXTT16=
EXTT17=
EXTT18=
EXTT19=
PLAYORDER=
